PathFileType	3	(X/Y/Z)	F:\ViconData\AntennenMessung\Messung1\Session1\ID14.trc
DataRate	CameraRate	NumFrames	NumMarkers	Units	OrigDataRate	OrigDataStartFrame	OrigNumFrames
120.0	120.0	4	70	mm	120.0	1	1940	
Frame#	Time	Ashort			Along			Atop			A4			Bshort			Blong			Btop			B4			Cshort			Clong			Ctop			C4			Dshort			Dlong			Dtop			D4			Eshort			Elong			Etop			E4			Fshort			Flong			Ftop			F4			Gshort			Glong			Gtop			G4			Hshort			Hlong			Htop			H4			I1			I2			I3			I4			I5			WandAshort			WandAlong			WandAtop			WandA4			WandA15			WandBshort			WandB4			WandB5			WandBtop			WandBlong			WandCshort			WandClong			WandCtop			WandC4			WandC5			Acenter			Aantenna			Bcenter			Bantenna			Ccenter			Cantenna			Dcenter			Dantenna			Ecenter			Eantenna			Fcenter			Fantenna			Gcenter			Gantenna			Hcenter			Hantenna			Icenter			Iantenna			
		X1	Y1	Z1	X2	Y2	Z2	X3	Y3	Z3	X4	Y4	Z4	X5	Y5	Z5	X6	Y6	Z6	X7	Y7	Z7	X8	Y8	Z8	X9	Y9	Z9	X10	Y10	Z10	X11	Y11	Z11	X12	Y12	Z12	X13	Y13	Z13	X14	Y14	Z14	X15	Y15	Z15	X16	Y16	Z16	X17	Y17	Z17	X18	Y18	Z18	X19	Y19	Z19	X20	Y20	Z20	X21	Y21	Z21	X22	Y22	Z22	X23	Y23	Z23	X24	Y24	Z24	X25	Y25	Z25	X26	Y26	Z26	X27	Y27	Z27	X28	Y28	Z28	X29	Y29	Z29	X30	Y30	Z30	X31	Y31	Z31	X32	Y32	Z32	X33	Y33	Z33	X34	Y34	Z34	X35	Y35	Z35	X36	Y36	Z36	X37	Y37	Z37	X38	Y38	Z38	X39	Y39	Z39	X40	Y40	Z40	X41	Y41	Z41	X42	Y42	Z42	X43	Y43	Z43	X44	Y44	Z44	X45	Y45	Z45	X46	Y46	Z46	X47	Y47	Z47	X48	Y48	Z48	X49	Y49	Z49	X50	Y50	Z50	X51	Y51	Z51	X52	Y52	Z52	X53	Y53	Z53	X54	Y54	Z54	X55	Y55	Z55	X56	Y56	Z56	X57	Y57	Z57	X58	Y58	Z58	X59	Y59	Z59	X60	Y60	Z60	X61	Y61	Z61	X62	Y62	Z62	X63	Y63	Z63	X64	Y64	Z64	X65	Y65	Z65	X66	Y66	Z66	X67	Y67	Z67	X68	Y68	Z68	X69	Y69	Z69	X70	Y70	Z70	
1	0	-1038.2229	214.63841	-1644.042	-1109.3806	204.38806	-1599.453	-1063.4003	172.86241	-1625.9707	-1054.0919	262.18579	-1634.9039	-1352.4886	234.68539	1003.8583	-1281.347	227.43044	1052.2677	-1322.6523	193.99901	1020.8837	-1284.4608	287.90244	1052.6337	813.95563	187.83556	1209.4318	892.25525	178.48305	1179.0522	844.48615	145.31027	1198.3035	860.81012	292.40369	1167.2861	1115.9717	210.15375	-1401.8236	1056.4379	194.20905	-1460.2722	1095.1786	162.49808	-1423.8154	1069.7574	238.98914	-1426.032	-1204.6282	1686.0385	-1563.0771	-1129.135	1688.3929	-1606.3052	-1173.1464	1724.4895	-1581.9744	-1134.0005	1581.0704	-1603.774	-1239.6989	1699.2502	1119.5082	-1309.4548	1698.9032	1071.967	-1270.4763	1736.3588	1096.9287	-1245.5917	1592.7756	1110.6821	988.81702	1664.116	1162.184	957.20239	1700.424	1183.8594	921.52563	1662.4358	1214.7937	939.83575	1659.3312	1159.8411	999.18945	1668.4163	-1579.3617	1059.0641	1670.1168	-1518.8362	1025.0774	1708.0015	-1551.1602	1059.3092	1672.2233	-1585.5894	-238.12411	1170.4292	-194.62654	-153.34535	1173.0404	-193.89748	-201.03702	1208.9163	-193.94093	-202.31262	1171.2926	-162.703	-200.55045	1172.8776	-241.70448																																														-1068.3057	210.30495	-1625.1914	-1073.3706	248.96628	-1624.3868	-1321.5604	231.53136	1024.9039	-1320.4326	270.29333	1029.0558	848.23401	183.74117	1196.132	852.01349	222.49579	1193.9423	1088.8802	202.89796	-1428.421	1082.9105	241.19031	-1432.7866	-1171.8918	1687.0594	-1581.8221	-1170.5854	1648.0817	-1581.6636	-1271.0958	1699.094	1098.1099	-1271.7439	1660.1188	1099.3452	952.44867	1705.8832	1187.1184	972.5213	1734.0856	1169.1541	1026.6384	1669.1958	-1551.6141	1028.2058	1630.23	-1552.0701	-199.88484	1171.6069	-194.29768	-198.68112	1132.6272	-194.67041
2	0.0083333333	-1038.2411	214.60573	-1644.0221	-1109.389	204.37207	-1599.4587	-1063.3407	172.92346	-1625.9912	-1054.1172	262.23541	-1634.8314	-1352.6332	235.41284	1003.4872	-1281.3395	227.47032	1052.2626	-1322.6516	193.99464	1020.9232	-1284.4093	287.88348	1052.6532	813.94727	187.8533	1209.4594	892.29041	178.62227	1178.9008	844.49866	145.41585	1198.3042	860.93317	292.37106	1168.11	1115.9683	210.13565	-1401.8218	1056.439	194.20987	-1460.2833	1095.1451	162.36887	-1423.7421	1069.745	238.95766	-1426.0289	-1204.636	1686.054	-1563.0598	-1129.1243	1688.3005	-1605.9443	-1173.1531	1724.4989	-1581.9609	-1134.0017	1581.0728	-1603.7823	-1239.7008	1699.2469	1119.5162	-1309.4698	1698.9379	1071.9856	-1270.2959	1736.1285	1096.843	-1245.6294	1592.8054	1110.7057	988.81696	1664.098	1162.1636	957.25702	1700.4296	1183.858	921.57855	1662.358	1214.8173	939.78424	1659.3699	1159.8308	999.19153	1668.4116	-1579.3431	1059.0519	1670.0953	-1518.8313	1025.0802	1708.0076	-1551.1604	1059.3352	1672.1658	-1585.3992	-238.12534	1170.429	-194.61874	-153.34288	1173.0377	-193.89777	-201.04225	1208.9111	-193.9451	-202.29228	1171.2729	-162.68867	-200.5472	1172.8806	-241.71228																																														-1068.24	210.29079	-1625.2322	-1073.3092	248.95197	-1624.447	-1321.2076	231.91183	1024.9868	-1319.7319	270.66202	1029.1399	848.1684	183.82108	1196.1108	851.87201	222.58167	1193.8975	1088.8911	202.8918	-1428.413	1082.981	241.18779	-1432.8273	-1171.8716	1687.0287	-1581.6674	-1170.5386	1648.0527	-1581.3619	-1271.0353	1699.1082	1098.1692	-1271.8138	1660.1409	1099.5654	952.56305	1705.833	1187.0847	972.64948	1734.0166	1169.1063	1026.6263	1669.1831	-1551.6096	1028.1782	1630.2167	-1552.0604	-199.89137	1171.6055	-194.29361	-198.68886	1132.6257	-194.65778
3	0.016666667	-1038.2018	214.64232	-1644.0319	-1109.3831	204.36891	-1599.4442	-1063.3676	172.90779	-1625.994	-1054.0898	262.27271	-1634.8546	-1352.6758	235.42047	1003.5052	-1281.3639	227.4386	1052.2389	-1322.5858	194.01262	1020.886	-1284.4519	287.88635	1052.6802	814.00323	187.79547	1209.4266	892.23883	178.4705	1179.0583	844.58063	145.43321	1198.3159	860.85864	292.78134	1167.0647	1115.8724	209.68243	-1401.6	1056.4373	194.20392	-1460.2888	1095.2504	162.55206	-1423.8094	1069.7435	238.95357	-1426.0309	-1204.6306	1686.0397	-1563.0671	-1129.1982	1688.4812	-1606.718	-1173.1593	1724.4949	-1581.9698	-1134.0062	1581.0647	-1603.775	-1239.696	1699.2466	1119.5134	-1309.4412	1698.8938	1071.9691	-1270.4647	1736.3429	1096.9124	-1245.5876	1592.7401	1110.6786	988.80481	1664.1067	1162.1533	957.21564	1700.4535	1183.8306	921.65283	1662.3748	1214.8536	939.8064	1659.3483	1159.8282	999.19287	1668.4185	-1579.3628	1059.0573	1670.0936	-1518.8282	1025.0773	1708.009	-1551.1591	1059.3278	1672.1573	-1585.411	-238.11563	1170.4076	-194.61006	-153.35904	1173.0255	-193.88373	-201.04846	1208.918	-193.9389	-202.27837	1171.267	-162.67128	-200.55447	1172.8827	-241.71786																																														-1068.2668	210.30309	-1625.1992	-1073.332	248.96402	-1624.3776	-1321.178	231.89494	1025.0304	-1319.738	270.63718	1029.2689	848.28955	183.70885	1196.1179	852.04492	222.46378	1193.8923	1089.0343	202.69305	-1428.101	1083.0991	241.02037	-1432.1987	-1171.953	1687.0972	-1581.9769	-1170.6957	1648.1176	-1581.9843	-1271.093	1699.0876	1098.1105	-1271.7502	1660.1133	1099.3638	952.55072	1705.821	1187.0317	972.58887	1733.9973	1168.9885	1026.6292	1669.1862	-1551.6193	1028.1868	1630.22	-1552.0813	-199.89247	1171.588	-194.2825	-198.68542	1132.6084	-194.64128
4	0.025	-1038.2321	214.62971	-1644.031	-1109.3748	204.33458	-1599.4435	-1063.3824	172.90219	-1625.9786	-1054.0797	262.24463	-1634.8436	-1352.5726	235.44019	1003.4244	-1281.4021	227.41277	1052.3087	-1322.6102	193.9892	1020.8616	-1284.4171	287.89545	1052.6331	814.0321	187.68639	1209.5352	892.30078	178.5853	1178.9753	844.62207	145.30374	1198.4131	861.2561	292.47717	1169.3517	1115.9697	210.12399	-1401.8259	1056.4375	194.19699	-1460.2826	1095.1934	162.46991	-1423.7915	1069.7402	238.95174	-1426.0222	-1204.6259	1686.0414	-1563.0746	-1129.1525	1688.3903	-1606.3008	-1173.1615	1724.4857	-1581.968	-1133.9987	1581.0587	-1603.7555	-1239.6781	1699.2291	1119.5143	-1309.4578	1698.9073	1071.9753	-1270.4792	1736.3561	1096.92	-1245.5831	1592.7354	1110.6759	988.79156	1664.1033	1162.1553	957.25336	1700.4354	1183.8529	921.65985	1662.3416	1214.7681	939.83862	1659.3573	1159.8265	999.19257	1668.4265	-1579.3726	1059.0936	1670.2689	-1518.7385	1025.0813	1708.0146	-1551.1527	1059.3241	1672.1598	-1585.4117	-238.13219	1170.4204	-194.61009	-153.3539	1173.0272	-193.89883	-201.04649	1208.9163	-193.94803	-202.27756	1171.276	-162.67218	-200.55061	1172.8835	-241.70476																																														-1068.2963	210.27908	-1625.1887	-1073.3787	248.93788	-1624.3718	-1321.1718	231.89841	1024.9923	-1319.7015	270.64136	1029.214	848.21887	183.71112	1196.1869	851.84918	222.47673	1193.9401	1088.9065	202.88361	-1428.4	1082.9493	241.17776	-1432.767	-1171.9081	1687.0596	-1581.8131	-1170.6025	1648.0817	-1581.6517	-1271.1111	1699.0841	1098.0999	-1271.772	1660.1093	1099.3335	952.6189	1705.7742	1187.0413	972.70435	1733.952	1169.053	1026.6769	1669.2717	-1551.5518	1028.2817	1630.3069	-1551.9532	-199.89609	1171.5962	-194.28929	-198.69453	1132.6163	-194.64574
